<?xml version="1.0" standalone="no"?>
<!DOCTYPE svg PUBLIC "-//W3C//DTD SVG 20010904//EN"
 "http://www.w3.org/TR/2001/REC-SVG-20010904/DTD/svg10.dtd">
<svg version="1.0" xmlns="http://www.w3.org/2000/svg"
 width="800.000000pt" height="800.000000pt" viewBox="0 0 800.000000 800.000000"
 preserveAspectRatio="xMidYMid meet">
<metadata>
Created by potrace 1.11, written by Peter Selinger 2001-2013
</metadata>
<g transform="translate(0.000000,800.000000) scale(0.100000,-0.100000)"
fill="#000000" stroke="none">
<path d="M1940 6672 c-8 -3 -17 -8 -20 -12 -3 -5 -41 -4 -85 1 -44 4 -450 8
-903 8 -931 1 -876 6 -888 -74 -3 -25 -5 -92 -2 -150 3 -99 5 -107 31 -133 27
-27 28 -27 205 -32 113 -3 185 -9 198 -17 27 -15 71 -67 78 -90 2 -10 79 -256
170 -548 182 -584 222 -716 321 -1040 37 -121 93 -305 125 -410 332 -1082 546
-1827 691 -2408 69 -276 85 -330 103 -339 54 -29 1046 -36 1108 -8 34 16 41
34 78 215 100 474 260 1075 620 2320 130 452 127 440 160 469 58 48 140 43
193 -12 21 -23 39 -79 106 -347 44 -176 121 -480 171 -675 131 -511 154 -614
319 -1450 49 -251 94 -468 100 -482 20 -52 15 -52 611 -56 613 -5 613 -5 644
56 9 17 45 153 81 303 131 549 245 945 727 2519 71 234 163 533 203 665 40
132 97 319 125 415 29 96 79 265 112 375 32 110 68 237 79 283 31 132 68 190
150 234 40 21 59 23 207 26 204 5 194 -5 199 187 4 180 6 178 -154 186 -198
11 -2278 10 -2307 -1 -35 -13 -41 -42 -41 -197 0 -193 -35 -177 385 -183 330
-5 340 -6 361 -26 20 -20 21 -28 14 -103 -4 -45 -11 -81 -15 -81 -6 0 -30 -52
-30 -65 0 -2 8 -5 18 -7 15 -4 21 4 32 41 7 25 15 40 17 34 2 -6 -7 -44 -21
-85 -13 -40 -32 -102 -41 -138 -30 -120 -67 -230 -77 -230 -5 0 -6 -9 -3 -21
5 -13 1 -25 -9 -32 -11 -8 -19 -37 -25 -87 -5 -41 -16 -97 -24 -125 -70 -228
-100 -329 -111 -380 -8 -33 -28 -96 -46 -140 -17 -44 -32 -92 -31 -108 0 -15
-4 -25 -8 -23 -4 3 -7 -7 -7 -22 -1 -32 -53 -213 -65 -226 -5 -6 -9 -18 -9
-28 0 -10 -5 -18 -11 -18 -7 0 -8 -11 -4 -30 5 -23 3 -30 -8 -30 -10 0 -13 -8
-9 -26 4 -20 2 -25 -8 -19 -10 6 -11 2 -7 -17 4 -15 1 -32 -8 -44 -8 -10 -15
-34 -15 -52 0 -22 -4 -31 -11 -26 -8 5 -10 -1 -5 -19 3 -14 2 -36 -3 -49 -9
-21 -10 -21 -11 -3 -1 11 -8 1 -16 -25 -8 -25 -12 -50 -10 -57 3 -7 -1 -10
-10 -6 -8 3 -14 1 -12 -5 2 -6 -4 -17 -13 -24 -9 -7 -30 -60 -47 -118 -33
-114 -49 -190 -33 -155 9 19 10 19 10 -2 1 -13 -5 -23 -12 -23 -13 0 -42 -86
-135 -400 -22 -74 -47 -160 -56 -191 -28 -100 -84 -146 -162 -134 -60 9 -98
43 -117 107 -9 29 -88 339 -176 688 -376 1502 -418 1709 -506 2515 -20 182
-40 344 -44 360 -7 28 -12 31 -62 37 -75 9 -911 9 -925 0 -18 -11 -29 -63 -78
-362 -99 -602 -153 -812 -808 -3103 -59 -205 -64 -219 -94 -238 -78 -48 -192
-3 -214 83 -6 24 -22 81 -36 128 -13 47 -24 90 -24 97 0 6 -5 24 -12 40 -6 15
-11 31 -10 36 1 4 -4 7 -12 7 -8 0 -19 14 -25 31 -14 40 -14 52 -1 44 26 -16
-5 63 -32 83 -10 7 -18 20 -18 28 0 8 -5 14 -10 14 -6 0 -8 -12 -5 -27 l5 -28
-11 25 c-14 31 -30 104 -32 148 -1 17 -5 32 -9 32 -12 0 -110 356 -308 1115
-36 138 -95 356 -145 534 -37 130 -41 156 -25 146 11 -7 11 9 0 45 -6 18 -8
20 -9 7 -1 -24 -17 -14 -24 15 -3 13 -11 41 -17 63 -6 22 -19 74 -29 115 -11
41 -34 131 -54 200 -45 163 -49 179 -48 215 1 45 19 79 54 106 32 24 34 24
312 27 357 4 328 -14 323 202 -2 123 0 157 11 166 17 14 11 33 -9 26z m2358
-50 c3 -9 -2 -13 -14 -10 -9 1 -19 9 -22 16 -3 9 2 13 14 10 9 -1 19 -9 22
-16z m2895 11 c-7 -2 -21 -2 -30 0 -10 3 -4 5 12 5 17 0 24 -2 18 -5z m240 0
c-7 -2 -21 -2 -30 0 -10 3 -4 5 12 5 17 0 24 -2 18 -5z m50 0 c-7 -2 -19 -2
-25 0 -7 3 -2 5 12 5 14 0 19 -2 13 -5z m134 0 c-20 -2 -52 -2 -70 0 -17 2 0
4 38 4 39 0 53 -2 32 -4z m136 0 c-13 -2 -33 -2 -45 0 -13 2 -3 4 22 4 25 0
35 -2 23 -4z m117 -13 c-9 -4 -31 -5 -50 0 -34 8 -33 8 15 9 34 0 45 -3 35 -9z
m64 -30 c10 0 16 -6 14 -12 -5 -15 -48 -24 -49 -11 0 4 -2 19 -5 33 -3 23 -3
23 10 8 7 -10 21 -18 30 -18z m-2360 -2765 c-4 -8 -10 -15 -15 -15 -4 0 -6 7
-3 15 4 8 10 15 15 15 4 0 6 -7 3 -15z m-54 -220 c0 -8 -4 -15 -10 -15 -5 0
-7 7 -4 15 4 8 8 15 10 15 2 0 4 -7 4 -15z m-3 -57 c-3 -8 -6 -5 -6 6 -1 11 2
17 5 13 3 -3 4 -12 1 -19z m-27 -28 c0 -5 -4 -10 -10 -10 -5 0 -10 5 -10 10 0
6 5 10 10 10 6 0 10 -4 10 -10z m-320 -715 c23 -9 28 -14 15 -14 -11 0 -31 6
-45 14 -31 18 -16 18 30 0z m-2980 -33 c-7 -3 -19 3 -28 13 -16 15 -15 16 12
4 15 -7 23 -15 16 -17z"/>
<path d="M1951 6424 c0 -11 3 -14 6 -6 3 7 2 16 -1 19 -3 4 -6 -2 -5 -13z"/>
<path d="M1276 6138 c-7 -27 12 -146 25 -154 5 -3 9 6 9 20 0 14 5 28 10 31 6
3 10 11 10 16 0 6 -4 7 -10 4 -5 -3 -10 1 -10 9 0 9 -5 16 -11 16 -8 0 -8 5 1
15 13 16 6 65 -9 65 -5 0 -11 -10 -15 -22z"/>
<path d="M6041 5534 c0 -11 3 -14 6 -6 3 7 2 16 -1 19 -3 4 -6 -2 -5 -13z"/>
<path d="M6040 5441 c0 -8 -7 -11 -15 -7 -8 3 -15 1 -15 -4 0 -6 6 -10 14 -10
17 0 31 18 22 27 -3 4 -6 1 -6 -6z"/>
<path d="M5591 3994 c0 -11 3 -14 6 -6 3 7 2 16 -1 19 -3 4 -6 -2 -5 -13z"/>
<path d="M1934 3617 c3 -10 6 -30 6 -43 0 -13 5 -24 10 -24 11 0 3 45 -12 70
-8 12 -8 11 -4 -3z"/>
</g>
</svg>
